<?xml version="1.0" encoding="UTF-8" standalone="no"?>
<!-- Created with Inkscape (http://www.inkscape.org/) -->

<svg
   xmlns:dc="http://purl.org/dc/elements/1.1/"
   xmlns:cc="http://creativecommons.org/ns#"
   xmlns:rdf="http://www.w3.org/1999/02/22-rdf-syntax-ns#"
   xmlns:svg="http://www.w3.org/2000/svg"
   xmlns="http://www.w3.org/2000/svg"
   xmlns:sodipodi="http://sodipodi.sourceforge.net/DTD/sodipodi-0.dtd"
   xmlns:inkscape="http://www.inkscape.org/namespaces/inkscape"
   width="32"
   height="32"
   id="svg2"
   version="1.1"
   inkscape:version="0.48.4 r9939"
   sodipodi:docname="icon.svg"
   inkscape:export-filename="/home/testing/.local/share/gnome-shell/extensions/quitfromdash@cldx3000.upinthesky.net/icon.png"
   inkscape:export-xdpi="90"
   inkscape:export-ydpi="90">
  <defs
     id="defs4" />
  <sodipodi:namedview
     id="base"
     pagecolor="#ffffff"
     bordercolor="#666666"
     borderopacity="1.0"
     inkscape:pageopacity="0.0"
     inkscape:pageshadow="2"
     inkscape:zoom="11.2"
     inkscape:cx="24.127789"
     inkscape:cy="6.3195213"
     inkscape:document-units="px"
     inkscape:current-layer="layer1"
     showgrid="true"
     inkscape:window-width="1366"
     inkscape:window-height="709"
     inkscape:window-x="0"
     inkscape:window-y="27"
     inkscape:window-maximized="1">
    <inkscape:grid
       type="xygrid"
       id="grid2985"
       empspacing="5"
       visible="true"
       enabled="true"
       snapvisiblegridlinesonly="true" />
  </sodipodi:namedview>
  <metadata
     id="metadata7">
    <rdf:RDF>
      <cc:Work
         rdf:about="">
        <dc:format>image/svg+xml</dc:format>
        <dc:type
           rdf:resource="http://purl.org/dc/dcmitype/StillImage" />
        <dc:title></dc:title>
      </cc:Work>
    </rdf:RDF>
  </metadata>
  <g
     inkscape:label="Ebene 1"
     inkscape:groupmode="layer"
     id="layer1"
     transform="translate(0,-1020.3622)">
    <path
       style="font-size:medium;font-style:normal;font-variant:normal;font-weight:normal;font-stretch:normal;text-indent:0;text-align:start;text-decoration:none;line-height:normal;letter-spacing:normal;word-spacing:normal;text-transform:none;direction:ltr;block-progression:tb;writing-mode:lr-tb;text-anchor:start;baseline-shift:baseline;color:#000000;fill:#061317;fill-opacity:1;stroke:none;stroke-width:4;marker:none;visibility:visible;display:inline;overflow:visible;enable-background:accumulate;font-family:Sans;-inkscape-font-specification:Sans"
       d="m 9,1022.3622 c -2.1666667,0 -3.7927361,1.3667 -4.40625,2.5938 C 3.9802361,1026.183 4,1027.3622 4,1027.3622 l 0,5.1875 -2.40625,2.4063 -1.4375,1.4062 1.4375,1.4063 2.40625,2.4062 0,5.1875 c 0,0 -0.019764,1.1792 0.59375,2.4063 0.6135139,1.227 2.2395833,2.5937 4.40625,2.5937 l 16,0 c 2.166667,0 3.792736,-1.3667 4.40625,-2.5937 C 30.019764,1046.5414 30,1045.3622 30,1045.3622 l 0,-18 c 0,0 0.01976,-1.1792 -0.59375,-2.4062 -0.613514,-1.2271 -2.239583,-2.5938 -4.40625,-2.5938 z m 1,4 14,0 c 2,0 2,2 2,2 l 0,16 c 0,2 -2,2 -2,2 l -14,0 c 0,0 -2,0 -2,-2 l 0,-5 0,-0.8437 -0.59375,-0.5625 -1.59375,-1.5938 1.59375,-1.5937 L 8,1034.206 l 0,-0.8438 0,-5 c 0,-2 2,-2 2,-2 z"
       id="path2987"
       inkscape:connector-curvature="0"
       sodipodi:nodetypes="scccccccccssccccsscccccccccccccccc" />
    <g
       transform="translate(-31.035714,510.2907)"
       id="layer9"
       style="display:inline" />
    <g
       transform="translate(-31.035714,510.2907)"
       id="layer10" />
    <g
       transform="translate(-31.035714,510.2907)"
       id="layer11" />
    <g
       transform="translate(-31.035714,510.2907)"
       id="layer12"
       style="fill:#111b1f;fill-opacity:1">
      <path
         inkscape:connector-curvature="0"
         d="m 48,519.03125 c -3.85327,0 -6.96875,3.11547 -6.96875,6.96875 0,3.85327 3.11548,6.96875 6.96875,6.96875 3.85327,0 6.96875,-3.11548 6.96875,-6.96875 0,-3.85328 -3.11548,-6.96875 -6.96875,-6.96875 z M 45,523 l 1,0 c 0.01037,-1.2e-4 0.02079,-4.6e-4 0.03125,0 0.254951,0.0112 0.50987,0.12858 0.6875,0.3125 L 48,524.59375 49.3125,523.3125 C 49.578125,523.082 49.759172,523.007 50,523 l 1,0 0,1 c 0,0.28647 -0.03434,0.55065 -0.25,0.75 l -1.28125,1.28125 1.25,1.25 C 50.906938,527.46942 50.999992,527.7347 51,528 l 0,1 -1,0 c -0.265301,-10e-6 -0.530586,-0.0931 -0.71875,-0.28125 L 48,527.4375 46.71875,528.71875 C 46.530586,528.90694 46.26529,529 46,529 l -1,0 0,-1 c -3e-6,-0.26529 0.09306,-0.53058 0.28125,-0.71875 l 1.28125,-1.25 L 45.28125,524.75 C 45.070508,524.55537 44.97809,524.28075 45,524 l 0,-1 z"
         id="path10839"
         style="font-size:medium;font-style:normal;font-variant:normal;font-weight:normal;font-stretch:normal;text-indent:0;text-align:start;text-decoration:none;line-height:normal;letter-spacing:normal;word-spacing:normal;text-transform:none;direction:ltr;block-progression:tb;writing-mode:lr-tb;text-anchor:start;color:#bebebe;fill:#111b1f;fill-opacity:1;fill-rule:nonzero;stroke:none;stroke-width:1.78124988000000006;marker:none;visibility:visible;display:inline;overflow:visible;enable-background:new;font-family:Andale Mono;-inkscape-font-specification:Andale Mono" />
    </g>
    <g
       transform="translate(-31.035714,510.2907)"
       id="layer13" />
    <g
       transform="translate(-31.035714,510.2907)"
       id="layer14" />
    <g
       transform="translate(-31.035714,510.2907)"
       id="layer15" />
  </g>
</svg>
